<svg width="80" height="80" viewBox="0 0 80 80" fill="none" xmlns="http://www.w3.org/2000/svg">
<path fill-rule="evenodd" clip-rule="evenodd" d="M11.5667 14.1667H14.9L15.0667 14.2C19.6872 14.2896 23.7244 17.3445 25.0667 21.7667L25.7333 24.0667H60.5C63.5701 24.0806 66.4853 25.4168 68.5 27.7333C70.509 30.0646 71.398 33.1578 70.9333 36.2L68.9333 50C68.2672 55.2896 63.7978 59.2751 58.4667 59.3333H38.8666C34.1843 59.3159 30.0608 56.2469 28.7 51.7667L20.2667 23.3333C19.6209 20.8939 17.4233 19.1878 14.9 19.1667H11.5667C10.1859 19.1667 9.06665 18.0474 9.06665 16.6667C9.06665 15.2859 10.1859 14.1667 11.5667 14.1667ZM33.5 50.1667C34.2076 52.54 36.3901 54.1667 38.8666 54.1667H58.4667C61.2256 54.1367 63.5619 52.1241 64 49.4L66 35.5667C66.2724 33.9564 65.8283 32.3075 64.7841 31.0519C63.7398 29.7963 62.1995 29.0591 60.5667 29.0333H27.2333L33.5 50.1667Z" fill="white"/>
<path d="M38.1 63.3333C36.259 63.3333 34.7667 64.8257 34.7667 66.6667C34.7667 68.5076 36.259 70 38.1 70C39.9409 70 41.4333 68.5076 41.4333 66.6667C41.4333 64.8257 39.9409 63.3333 38.1 63.3333Z" fill="white"/>
<path d="M58.1 63.3333C56.259 63.3333 54.7667 64.8257 54.7667 66.6667C54.7667 68.5076 56.259 70 58.1 70C59.9409 70 61.4333 68.5076 61.4333 66.6667C61.4333 64.8257 59.9409 63.3333 58.1 63.3333Z" fill="white"/>
</svg>
