<svg width="40" height="43" viewBox="0 0 40 43" fill="none" xmlns="http://www.w3.org/2000/svg">
<path d="M19.1335 36.6935C18.4738 36.6938 17.84 36.4174 17.3669 35.9231L5.70019 23.3814C4.72534 22.3322 4.72534 20.6324 5.70019 19.5831L17.3669 7.04143C18.001 6.36292 18.9237 6.09964 19.7874 6.35077C20.6511 6.60189 21.3245 7.32926 21.5541 8.25889C21.7836 9.18852 21.5343 10.1792 20.9002 10.8577L13.5128 18.8126H32.5333C33.9141 18.8126 35.0333 20.0158 35.0333 21.5001C35.0333 22.9843 33.9141 24.1876 32.5333 24.1876H13.521L20.9002 32.1068C21.6143 32.8754 21.8277 34.0305 21.4411 35.0342C21.0546 36.0378 20.144 36.6926 19.1335 36.6935Z" fill="#585037"/>
</svg>
